<svg id="icon_keywords" xmlns="http://www.w3.org/2000/svg" width="253.632" height="253.615" viewBox="0 0 253.632 253.615">
  <path id="Path_22378" data-name="Path 22378" d="M464.869,221.867H447.96a4.227,4.227,0,0,0,0,8.454h16.909a4.227,4.227,0,0,1,4.228,4.226v42.273a4.227,4.227,0,0,1-4.228,4.226H447.96a4.227,4.227,0,0,0,0,8.454h16.909a12.681,12.681,0,0,0,12.682-12.68V234.547a12.681,12.681,0,0,0-12.682-12.68Zm0,0" transform="translate(-223.92 -111.96)" fill="#6993ff"/>
  <path id="Path_22379" data-name="Path 22379" d="M12.682,280.889H63.407a4.227,4.227,0,1,0,0-8.454H12.682a4.227,4.227,0,0,1-4.228-4.226V225.935a4.227,4.227,0,0,1,4.228-4.226H63.407a4.227,4.227,0,1,0,0-8.454H29.59v-4.228a4.227,4.227,0,0,0-8.454,0v4.228H12.682A12.681,12.681,0,0,0,0,225.935v42.273a12.681,12.681,0,0,0,12.682,12.68Zm0,0" transform="translate(0 -103.348)" fill="#6993ff"/>
  <path id="Path_22380" data-name="Path 22380" d="M234.153,179.2a54.954,54.954,0,1,0,54.954,54.954A54.955,54.955,0,0,0,234.153,179.2Zm0,101.453a46.5,46.5,0,1,1,46.5-46.5A46.5,46.5,0,0,1,234.153,280.652Zm0,0" transform="translate(-90.429 -90.429)" fill="#6993ff"/>
  <path id="Path_22381" data-name="Path 22381" d="M42.668,260.228v25.363a4.227,4.227,0,0,0,8.454,0V260.228a4.227,4.227,0,1,0-8.454,0Zm0,0" transform="translate(-21.532 -129.184)" fill="#6993ff"/>
  <path id="Path_22382" data-name="Path 22382" d="M286.969,266.826a4.228,4.228,0,0,0-5.944.033l-4.091,4.089-6.84-6.84c-.025-.029-.064-.033-.093-.064a72.136,72.136,0,1,0-5.948,5.948c.031.029.035.068.064.093l6.84,6.84-4.878,4.878a4.224,4.224,0,0,0,.039,6.014l34.912,34.127a14.8,14.8,0,0,0,20.891-20.959Zm-70.595,12.951a63.408,63.408,0,1,1,63.408-63.408A63.408,63.408,0,0,1,216.375,279.777Zm67.669-3.986,24.627,24.1-8.965,8.965-24.627-24.074Zm31.928,40.158a6.34,6.34,0,0,1-9-.037l-1.221-1.188,8.965-8.967,1.267,1.227a6.339,6.339,0,0,1,0,8.961Zm0,0" transform="translate(-72.651 -72.645)" fill="#6993ff"/>
  <path id="Path_22383" data-name="Path 22383" d="M287.182,256.432a4.227,4.227,0,0,0-5.672,1.894l-12.572,25.138-9.275-24.736a4.227,4.227,0,0,0-7.922,0l-9.275,24.736-12.551-25.138a4.229,4.229,0,1,0-7.566,3.779l16.908,33.817a4.175,4.175,0,0,0,4,2.334,4.227,4.227,0,0,0,3.74-2.738l8.7-23.263,8.721,23.25a4.226,4.226,0,0,0,3.74,2.74h.221a4.23,4.23,0,0,0,3.8-2.338L289.1,262.088a4.228,4.228,0,0,0-1.916-5.656Zm0,0" transform="translate(-111.979 -129.173)" fill="#6993ff"/>
  <path id="Path_22384" data-name="Path 22384" d="M8.454,25.363H71.862a8.454,8.454,0,0,0,8.454-8.454V8.454A8.454,8.454,0,0,0,71.862,0H8.454A8.454,8.454,0,0,0,0,8.454v8.454a8.454,8.454,0,0,0,8.454,8.454Zm0-16.908H71.862v8.454H8.454Zm0,0" transform="translate(0)" fill="#6993ff"/>
  <path id="Path_22385" data-name="Path 22385" d="M238.934,76.72v8.454a8.454,8.454,0,0,0,8.454,8.454H310.8a8.454,8.454,0,0,0,8.454-8.454V76.72a8.454,8.454,0,0,0-8.454-8.454H247.388A8.454,8.454,0,0,0,238.934,76.72ZM310.8,85.174H247.388V76.72H310.8Zm0,0" transform="translate(-120.573 -34.449)" fill="#6993ff"/>
  <path id="Path_22386" data-name="Path 22386" d="M187.654,25.363h33.819a8.454,8.454,0,0,0,8.454-8.454V8.454A8.454,8.454,0,0,0,221.473,0H187.654A8.454,8.454,0,0,0,179.2,8.454v8.454a8.454,8.454,0,0,0,8.454,8.454Zm0-16.908h33.819v8.454H187.654Zm0,0" transform="translate(-90.429)" fill="#6993ff"/>
  <path id="Path_22387" data-name="Path 22387" d="M127.921,68.266a8.456,8.456,0,0,0-8.456,8.454v8.454a8.456,8.456,0,0,0,8.456,8.454h33.817a8.454,8.454,0,0,0,8.454-8.454V76.72a8.454,8.454,0,0,0-8.454-8.454Zm0,16.908V76.72h33.817v8.454Zm0,0" transform="translate(-60.285 -34.449)" fill="#6993ff"/>
  <path id="Path_22388" data-name="Path 22388" d="M8.454,93.629H21.137v4.228a4.227,4.227,0,1,0,8.454,0V93.629h12.68a8.454,8.454,0,0,0,8.454-8.454V76.72a8.454,8.454,0,0,0-8.454-8.454H8.454A8.454,8.454,0,0,0,0,76.72v8.454a8.454,8.454,0,0,0,8.454,8.454Zm0-16.908H42.271v8.454H8.454Zm0,0" transform="translate(0 -34.449)" fill="#6993ff"/>
  <path id="Path_22389" data-name="Path 22389" d="M307.122,25.363H324.03a8.454,8.454,0,0,0,8.454-8.454V8.454A8.454,8.454,0,0,0,324.03,0H307.122a8.454,8.454,0,0,0-8.454,8.454v8.454a8.454,8.454,0,0,0,8.454,8.454Zm0-16.908H324.03v8.454H307.122Zm0,0" transform="translate(-150.716)" fill="#6993ff"/>
  <path id="Path_22390" data-name="Path 22390" d="M456.178,68.266H426.587a8.454,8.454,0,0,0-8.454,8.454v8.454a8.454,8.454,0,0,0,8.454,8.454h29.591a8.454,8.454,0,0,0,8.454-8.454V76.72a8.454,8.454,0,0,0-8.454-8.454ZM426.587,85.174V76.72h29.591v8.454Zm0,0" transform="translate(-211.001 -34.449)" fill="#6993ff"/>
  <path id="Path_22391" data-name="Path 22391" d="M438.954,0h-46.5A8.454,8.454,0,0,0,384,8.454v8.454a8.454,8.454,0,0,0,8.454,8.454h46.5a8.454,8.454,0,0,0,8.454-8.454V8.454A8.454,8.454,0,0,0,438.954,0Zm-46.5,16.908V8.454h46.5v8.454Zm0,0" transform="translate(-193.777 0)" fill="#6993ff"/>
  <path id="Path_22392" data-name="Path 22392" d="M46.894,153.6a4.227,4.227,0,0,0-4.226,4.226v8.454a4.227,4.227,0,1,0,8.454,0v-8.454A4.227,4.227,0,0,0,46.894,153.6Zm0,0" transform="translate(-21.532 -77.512)" fill="#6993ff"/>
</svg>
