<svg xmlns="http://www.w3.org/2000/svg" width="22.5" height="30.75" viewBox="0 0 22.5 30.75"><defs><style>.a{fill:#ecf4ff;}.b{fill:#6993ff;}.c{fill:#9dc6fb;}</style></defs><path class="a" d="M90.564,30.75H69.3a.619.619,0,0,1-.619-.619V.619A.619.619,0,0,1,69.3,0H90.564a.619.619,0,0,1,.619.619V30.131A.619.619,0,0,1,90.564,30.75Z" transform="translate(-68.683 0)"/><g transform="translate(2 6.063)"><g transform="translate(0)"><path class="b" d="M105.108,103.449v-2.506a3.125,3.125,0,1,0,3.125,3.125h-2.506a.619.619,0,0,1-.619-.619Z" transform="translate(-101.983 -100.943)"/></g></g><g transform="translate(6.25 2)"><path class="b" d="M172.748,33.92v.763a.619.619,0,0,0,.619.619h8.763a.619.619,0,0,0,.619-.619V33.92a.619.619,0,0,0-.619-.619h-8.763A.619.619,0,0,0,172.748,33.92Z" transform="translate(-172.748 -33.301)"/></g><g transform="translate(2.25 17.5)"><g transform="translate(0 9.25)"><path class="b" d="M106.146,445.769v1.258a.371.371,0,0,0,.371.371h2.258a.371.371,0,0,0,.371-.371v-1.258a.371.371,0,0,0-.371-.371h-2.258A.371.371,0,0,0,106.146,445.769Z" transform="translate(-106.146 -445.398)"/></g><g transform="translate(5 6.25)"><path class="b" d="M189.4,395.818v4.258a.371.371,0,0,0,.371.371h2.258a.371.371,0,0,0,.371-.371v-4.258a.371.371,0,0,0-.371-.371h-2.258A.371.371,0,0,0,189.4,395.818Z" transform="translate(-189.398 -395.447)"/></g><g transform="translate(10 2.5)"><path class="b" d="M272.65,333.379v8.008a.371.371,0,0,0,.371.371h2.258a.371.371,0,0,0,.371-.371v-8.008a.371.371,0,0,0-.371-.371h-2.258A.371.371,0,0,0,272.65,333.379Z" transform="translate(-272.65 -333.008)"/></g><g transform="translate(15)"><path class="b" d="M355.9,291.753v10.508a.371.371,0,0,0,.371.371h2.258a.371.371,0,0,0,.371-.371V291.753a.371.371,0,0,0-.371-.371h-2.258A.371.371,0,0,0,355.9,291.753Z" transform="translate(-355.902 -291.382)"/></g></g><g transform="translate(10.786 5.599)"><path class="c" d="M257.988,94.146h-9.25a.464.464,0,1,1,0-.928h9.25a.464.464,0,1,1,0,.928Z" transform="translate(-248.274 -93.218)"/></g><g transform="translate(10.786 7.682)"><path class="c" d="M257.988,128.834h-9.25a.464.464,0,1,1,0-.928h9.25a.464.464,0,1,1,0,.928Z" transform="translate(-248.274 -127.906)"/></g><g transform="translate(10.786 9.765)"><path class="c" d="M257.988,163.522h-9.25a.464.464,0,1,1,0-.928h9.25a.464.464,0,1,1,0,.928Z" transform="translate(-248.274 -162.594)"/></g><g transform="translate(10.786 11.849)"><path class="c" d="M254.238,198.21h-5.5a.464.464,0,1,1,0-.928h5.5a.464.464,0,0,1,0,.928Z" transform="translate(-248.274 -197.282)"/></g><g transform="translate(2.349 14.911)"><g transform="translate(0)"><path class="c" d="M116.687,249.2H108.25a.464.464,0,1,1,0-.928h8.437a.464.464,0,1,1,0,.928Z" transform="translate(-107.786 -248.274)"/></g><g transform="translate(0 2.083)"><path class="c" d="M116.687,283.89H108.25a.464.464,0,0,1,0-.928h8.437a.464.464,0,0,1,0,.928Z" transform="translate(-107.786 -282.962)"/></g><g transform="translate(0 4.167)"><path class="c" d="M112.938,318.579H108.25a.464.464,0,0,1,0-.928h4.687a.464.464,0,0,1,0,.928Z" transform="translate(-107.786 -317.651)"/></g></g></svg>