<svg xmlns="http://www.w3.org/2000/svg" width="21.613" height="22.06" viewBox="0 0 21.613 22.06"><defs><style>.a{fill:#6993ff;}.b{fill:#fff;}</style></defs><g transform="translate(0 -18.8)"><g transform="translate(0 18.8)"><path class="a" d="M3.063,18.8H18.55a3.07,3.07,0,0,1,3.063,3.063V37.8A3.07,3.07,0,0,1,18.55,40.86H3.063A3.07,3.07,0,0,1,0,37.8V21.829A3.063,3.063,0,0,1,3.063,18.8Z" transform="translate(0 -18.8)"/></g></g><path class="b" d="M9.36,6.21H6.12V2.97a.72.72,0,0,0-.72-.72H4.68a.72.72,0,0,0-.72.72V6.21H.72A.72.72,0,0,0,0,6.93v.72a.72.72,0,0,0,.72.72H3.96v3.24a.72.72,0,0,0,.72.72H5.4a.72.72,0,0,0,.72-.72V8.37H9.36a.72.72,0,0,0,.72-.72V6.93A.72.72,0,0,0,9.36,6.21Z" transform="translate(5.71 4.46)"/></svg>