<svg xmlns="http://www.w3.org/2000/svg" width="22.031" height="22.031" viewBox="0 0 22.031 22.031"><defs><style>.a{fill:#f64e60;}.b{fill:#fff;}</style></defs><g transform="translate(0 0)"><path class="a" d="M38.031,22.925v8.182a1,1,0,0,1-.3.711l-5.919,5.919a1,1,0,0,1-.711.3H22.925a1,1,0,0,1-.711-.3L16.3,31.818a1,1,0,0,1-.29-.706c.005-1.5,0-6.685,0-8.192a.993.993,0,0,1,.3-.706L22.214,16.3a1,1,0,0,1,.711-.3h8.182a1,1,0,0,1,.711.3l5.919,5.919a1,1,0,0,1,.3.711ZM27.892,21a.83.83,0,0,0,0-.11.882.882,0,1,0-1.757.11l.876,8.021Zm-.376,12.528a.5.5,0,1,0-.5.5A.5.5,0,0,0,27.516,33.525Zm0,0" transform="translate(-16 -16.001)"/><g transform="translate(9.131 3.004)"><path class="b" d="M163.764,64a1.885,1.885,0,0,0-1.872,2.1l.876,8.021a1,1,0,0,0,1.991,0l.872-7.991A1.9,1.9,0,0,0,163.764,64Zm0,0" transform="translate(-161.879 -64)"/><path class="b" d="M169.5,272a1.5,1.5,0,1,0,1.5,1.5A1.5,1.5,0,0,0,169.5,272Zm0,0" transform="translate(-167.617 -258.981)"/></g></g></svg>