<svg xmlns="http://www.w3.org/2000/svg" width="66" height="66" viewBox="0 0 66 66">
  <g id="Affiliates_-_Icon_2" data-name="Affiliates - Icon 2" transform="translate(-9388 -2016)">
    <path id="Affiliates_-_Icon_2-2" data-name="Affiliates - Icon 2" d="M62.138,16.272a5.962,5.962,0,0,0-8.41-8.41,32.849,32.849,0,0,0-37.456,0,5.962,5.962,0,0,0-8.41,8.41,32.849,32.849,0,0,0,0,37.456,5.962,5.962,0,0,0,8.41,8.41,32.849,32.849,0,0,0,37.456,0,5.962,5.962,0,0,0,8.41-8.41,32.849,32.849,0,0,0,0-37.456Zm-.542-3.9A3.971,3.971,0,1,1,57.626,8.4,3.975,3.975,0,0,1,61.6,12.374ZM12.374,8.4A3.971,3.971,0,1,1,8.4,12.374,3.975,3.975,0,0,1,12.374,8.4ZM8.4,57.626A3.971,3.971,0,1,1,12.374,61.6,3.975,3.975,0,0,1,8.4,57.626ZM17.55,60.59a5.961,5.961,0,0,0-8.14-8.14,30.848,30.848,0,0,1,0-34.9,5.961,5.961,0,0,0,8.14-8.14,30.848,30.848,0,0,1,34.9,0,5.961,5.961,0,0,0,8.14,8.14,30.848,30.848,0,0,1,0,34.9,5.961,5.961,0,0,0-8.14,8.14,30.848,30.848,0,0,1-34.9,0ZM57.626,61.6A3.971,3.971,0,1,1,61.6,57.626,3.975,3.975,0,0,1,57.626,61.6Z" transform="translate(9386 2014)" fill="#6993ff"/>
    <path id="Path_38654" data-name="Path 38654" d="M43.719,33.095H40.56a1,1,0,0,0-.878.521,5.288,5.288,0,0,1-9.363,0,1,1,0,0,0-.878-.521H26.281a6.243,6.243,0,0,0-6.235,6.236v9.276a1,1,0,0,0,1,1H48.954a1,1,0,0,0,1-1V39.331A6.243,6.243,0,0,0,43.719,33.095Zm4.235,14.513h-4.14V43.619a1,1,0,1,0-2,0v3.988H28.185V43.619a1,1,0,1,0-2,0v3.988h-4.14V39.331a4.241,4.241,0,0,1,4.235-4.236h2.595a7.273,7.273,0,0,0,12.248,0h2.595a4.241,4.241,0,0,1,4.235,4.236v8.276Z" transform="translate(9386 2014)" fill="#6993ff"/>
    <path id="Path_38655" data-name="Path 38655" d="M35,31.746a8.5,8.5,0,1,0-8.5-8.5A8.51,8.51,0,0,0,35,31.746Zm0-15a6.5,6.5,0,1,1-6.5,6.5A6.508,6.508,0,0,1,35,16.745Z" transform="translate(9386 2014)" fill="#6993ff"/>
  </g>
</svg>
