<svg xmlns="http://www.w3.org/2000/svg" width="29" height="25.469" viewBox="0 0 29 25.469"><defs><style>.a{fill:#6993ff;}.b{fill:#fff;}.c{fill:#36cdc5;}</style></defs><path class="a" d="M3.343,18.8h16.9a3.351,3.351,0,0,1,3.343,3.343V39.536a3.351,3.351,0,0,1-3.343,3.343H3.343A3.351,3.351,0,0,1,0,39.536V22.106A3.343,3.343,0,0,1,3.343,18.8Z" transform="translate(0 -18.8)"/><circle class="b" cx="5.409" cy="5.409" r="5.409" transform="translate(18.181 14.65)"/><g transform="translate(6.619 6.131)"><path class="b" d="M0,0H12.09V1.416H0Z" transform="translate(2.686 11.321) rotate(-69.444)"/><path class="b" d="M11.873,16.434A2.123,2.123,0,1,1,14,14.311,2.126,2.126,0,0,1,11.873,16.434Zm0-2.831a.708.708,0,1,0,.708.708A.708.708,0,0,0,11.873,13.6Z" transform="translate(-9.75 -10.279)"/><path class="b" d="M24.061,23.747a2.123,2.123,0,1,1,2.123-2.123A2.126,2.126,0,0,1,24.061,23.747Zm0-2.831a.708.708,0,1,0,.708.708A.708.708,0,0,0,24.061,20.915Z" transform="translate(-14.621 -13.202)"/></g><g transform="translate(21.036 16.754)"><path class="c" d="M242.8,197.989a.77.77,0,0,1,.789-.789.793.793,0,0,1,.789.789V203.1a.789.789,0,0,1-1.578,0Z" transform="translate(-241.034 -197.2)"/><path class="c" d="M243.025,198.515a.77.77,0,0,1,1.089-1.089l1.8,1.8a.77.77,0,0,1-1.089,1.089Z" transform="translate(-241.034 -197.2)"/><path class="c" d="M225.991,197.425a.77.77,0,0,1,1.089,1.089l-1.766,1.8a.77.77,0,1,1-1.089-1.089Z" transform="translate(-224 -197.2)"/></g></svg>