<svg xmlns="http://www.w3.org/2000/svg" width="25.196" height="40.434" viewBox="0 0 25.196 40.434">
  <g id="Group_101" data-name="Group 101" transform="translate(-11.989 -8.74)">
    <g id="magnifying-glass" transform="translate(24.585 0) rotate(45)">
      <g id="icon" transform="translate(0 0)">
        <ellipse id="Ellipse_11" data-name="Ellipse 11" cx="10.67" cy="10.67" rx="10.67" ry="10.67" transform="translate(0 15.087) rotate(-45)" fill="#575b6d"/>
        <path id="Path_84" data-name="Path 84" d="M15.209,15.209a8.909,8.909,0,1,1,0-12.6A8.909,8.909,0,0,1,15.209,15.209Z" transform="translate(6.183 6.179)" fill="#c5e4ff"/>
        <path id="Path_85" data-name="Path 85" d="M0,0H4.279V4.384H0Z" transform="translate(20.585 23.612) rotate(-45)" fill="#575b6d"/>
        <path id="Path_86" data-name="Path 86" d="M12.078,12.078A3.368,3.368,0,0,1,7.153,11.9L.07,3.753a.287.287,0,0,1,.014-.391L3.362.084A.287.287,0,0,1,3.753.07l8.152,7.083a3.368,3.368,0,0,1,.173,4.925Z" transform="translate(21.708 21.704)" fill="#f6b863"/>
      </g>
    </g>
    <g id="Group_100" data-name="Group 100" transform="translate(19.002 15.863) rotate(1)">
      <path id="Path_118" data-name="Path 118" d="M11.358,1.581l-.472-1.3a.431.431,0,0,0-.553-.258L9.036.5a.432.432,0,0,0,.3.811l.364-.132L6.239,7.413,3.518,6.269a.431.431,0,0,0-.51.136L.088,10.231a.431.431,0,1,0,.686.524l2.717-3.56,2.77,1.165a.432.432,0,0,0,.545-.189l3.64-6.57.1.277a.431.431,0,1,0,.811-.3Z" transform="translate(0.011 0)" fill="#a5d02a"/>
      <path id="Path_119" data-name="Path 119" d="M10.791,3.379h0a.432.432,0,0,0-.432.428l0,.3L6.762.142A.432.432,0,0,0,6.173.094l-3,2.384L.349,3.034a.432.432,0,0,0,.167.848l2.925-.576a.433.433,0,0,0,.185-.086l2.766-2.2L9.769,4.752l-.376,0h0a.432.432,0,0,0,0,.865l1.383.014h0A.432.432,0,0,0,11.2,5.2l.014-1.383a.432.432,0,0,0-.428-.437Z" transform="translate(0 1.311)" fill="#e45a6e"/>
      <path id="Path_121" data-name="Path 121" d="M5.088,3.379h0a.432.432,0,0,0-.432.428l0,.3L1.059.142A.432.432,0,0,0,.47.094L0,.467v1.1l.69-.548L4.066,4.752l-.376,0h0a.432.432,0,0,0,0,.865l1.383.014h0A.432.432,0,0,0,5.5,5.2l.014-1.383A.432.432,0,0,0,5.088,3.379Z" transform="translate(5.703 1.311)" fill="#d82e44"/>
      <path id="Path_122" data-name="Path 122" d="M5.666,1.581,5.194.284A.432.432,0,0,0,4.641.026L3.343.5a.432.432,0,0,0,.3.811L4,1.177.547,7.413,0,7.183v.936l.57.24a.432.432,0,0,0,.545-.189L4.754,1.6l.1.277a.431.431,0,1,0,.811-.3Z" transform="translate(5.703 0)" fill="#90bc02"/>
    </g>
  </g>
</svg>
