<svg xmlns="http://www.w3.org/2000/svg" width="39.352" height="40.091" viewBox="0 0 39.352 40.091"><defs><style>.a{fill:#fff;}</style></defs><g transform="translate(10.981 -8.527) rotate(31)"><path class="a" d="M36.1,5c-1.708.284-3.364.019-5.026.143-8.277.62-7.592,6.383-7.446,10.313-5.8.881-12.872-.894-15.4-.313a10.1,10.1,0,0,0,4.222,3.618A11.17,11.17,0,0,1,9.546,19.8a18.164,18.164,0,0,0,4.373,2.712,24.982,24.982,0,0,1-2.4.892c1.93,1.992,5.026,2.773,7.719,2.969-2.112,6-6.148,5.883-8.6,6.486,4.272,1.823,10.905,2.884,14.168,1.61,5.028-1.963,7.764-5.01,9.547-10.17,1.112-3.22.543-5.85-.286-9.218a13.022,13.022,0,0,1-.594-5.193A6.981,6.981,0,0,1,36.1,5Z"/></g></svg>