<svg xmlns="http://www.w3.org/2000/svg" width="32.234" height="28.661" viewBox="0 0 32.234 28.661"><defs><style>.a{fill:#fff;}</style></defs><path class="a" d="M26.042,27.359,21.629,32.5l2.393,2.055L29.2,28.528V20.06H26.042Z" transform="translate(-14.252 -12.648)"/><path class="a" d="M15.032,28.8A10.213,10.213,0,1,1,19,9.178l1.579-2.733A13.338,13.338,0,0,0,1.666,18.589,13.363,13.363,0,0,0,28.31,20.073H25.124A10.219,10.219,0,0,1,15.032,28.8Z" transform="translate(-1.666 -3.294)"/><path class="a" d="M62.052,13.626,54.185,0,46.317,13.626ZM53.433,4.72h1.576V8.9H53.433Zm1.576,5.754V12.05H53.433V10.474Z" transform="translate(-29.818)"/></svg>