<svg xmlns="http://www.w3.org/2000/svg" width="43.492" height="32.156" viewBox="0 0 43.492 32.156"><defs><style>.a{fill:#fff;}</style></defs><g transform="translate(0 -21.293)"><g transform="translate(0 21.293)"><path class="a" d="M5.236,51.4H3.9v5.647H14.676a.391.391,0,0,1,.3.129l2.759,2.285-.3-1.853a.478.478,0,0,1,.474-.56h3.535v-5.6H5.236Zm2.285,3.966H5.409v-1.9H7.521Zm12.371,0H9.848v-1.9H19.892Z" transform="translate(-3.038 -51.4)"/><path class="a" d="M83.5,51.4V57h3.535a.478.478,0,0,1,.474.56l-.3,1.853,2.759-2.285a.466.466,0,0,1,.3-.129h10.776V51.4H83.5Zm11.552,3.966H85.009v-1.9H95.052Zm4.44,0H97.379v-1.9h2.112Z" transform="translate(-58.327 -51.4)"/><g transform="translate(27.932 12.931)"><path class="a" d="M101.869,81.4a4.612,4.612,0,1,0,4.569,4.612A4.554,4.554,0,0,0,101.869,81.4Z" transform="translate(-94.11 -81.4)"/><path class="a" d="M89.943,113.767h15.517v-2.285a7.789,7.789,0,0,0-4.354-6.983,6.47,6.47,0,0,1-3.448,1.035,6.54,6.54,0,0,1-3.448-.991,7.714,7.714,0,0,0-4.31,6.94v2.285Z" transform="translate(-89.9 -94.543)"/></g><g transform="translate(0 12.931)"><path class="a" d="M13.969,81.4a4.612,4.612,0,1,0,4.569,4.612A4.608,4.608,0,0,0,13.969,81.4Z" transform="translate(-6.167 -81.4)"/><path class="a" d="M1.943,113.767H17.461v-2.285a7.789,7.789,0,0,0-4.354-6.983,6.47,6.47,0,0,1-3.448,1.035,6.54,6.54,0,0,1-3.448-.991,7.714,7.714,0,0,0-4.31,6.94v2.285Z" transform="translate(-1.9 -94.543)"/></g></g></g></svg>