<svg xmlns="http://www.w3.org/2000/svg" xmlns:xlink="http://www.w3.org/1999/xlink" width="54" height="54" viewBox="0 0 54 54"><defs><style>.a{fill:#fff;stroke:#707070;}.b{clip-path:url(#a);}.c{fill:#6993ff;}</style><clipPath id="a"><circle class="a" cx="27" cy="27" r="27"/></clipPath></defs><g class="b"><g transform="translate(6.879 11.866)"><path class="c" d="M36.157,34.8H3.74A3.745,3.745,0,0,1,0,31.058V24.824a1.246,1.246,0,0,1,1.247-1.247,3.74,3.74,0,0,0,0-7.481A1.246,1.246,0,0,1,0,14.849V8.615a3.745,3.745,0,0,1,3.74-3.74H36.157a3.745,3.745,0,0,1,3.74,3.74v6.234A1.246,1.246,0,0,1,38.651,16.1a3.74,3.74,0,0,0,0,7.481A1.246,1.246,0,0,1,39.9,24.824v6.234A3.745,3.745,0,0,1,36.157,34.8ZM2.494,25.945v5.113A1.248,1.248,0,0,0,3.74,32.3H36.157A1.248,1.248,0,0,0,37.4,31.058V25.945a6.235,6.235,0,0,1,0-12.217V8.615a1.248,1.248,0,0,0-1.247-1.247H3.74A1.248,1.248,0,0,0,2.494,8.615v5.113a6.235,6.235,0,0,1,0,12.217Z" transform="translate(0 -4.875)"/><path class="c" d="M0,0H21.3V2.494H0Z" transform="translate(15.042 24.481) rotate(-69.444)"/><path class="c" d="M13.49,19.668a3.74,3.74,0,1,1,3.74-3.74,3.745,3.745,0,0,1-3.74,3.74Zm0-4.987a1.247,1.247,0,1,0,1.247,1.247A1.248,1.248,0,0,0,13.49,14.681Z" transform="translate(0.56 -4.287)"/><path class="c" d="M25.678,26.981a3.74,3.74,0,1,1,3.74-3.74A3.745,3.745,0,0,1,25.678,26.981Zm0-4.987a1.247,1.247,0,1,0,1.247,1.247A1.248,1.248,0,0,0,25.678,21.994Z" transform="translate(1.26 -3.867)"/></g></g></svg>