<svg xmlns="http://www.w3.org/2000/svg" width="76.399" height="76.4" viewBox="0 0 76.399 76.4">
  <path id="Affiliates_-_Icon_1" data-name="Affiliates - Icon 1" d="M36.252,57.2A20.948,20.948,0,1,0,57.2,36.252,20.972,20.972,0,0,0,36.252,57.2Zm39.432,0A18.484,18.484,0,1,1,57.2,38.716,18.5,18.5,0,0,1,75.684,57.2Zm13.555-6.161A6.161,6.161,0,1,0,95.4,57.2,6.168,6.168,0,0,0,89.239,51.039Zm0,9.858a3.7,3.7,0,1,1,3.7-3.7A3.7,3.7,0,0,1,89.239,60.9ZM57.2,31.323a6.161,6.161,0,1,0-6.161-6.161A6.168,6.168,0,0,0,57.2,31.323Zm0-9.858a3.7,3.7,0,1,1-3.7,3.7A3.7,3.7,0,0,1,57.2,21.465ZM31.323,57.2a6.161,6.161,0,1,0-6.161,6.161A6.168,6.168,0,0,0,31.323,57.2Zm-6.161,3.7a3.7,3.7,0,1,1,3.7-3.7A3.7,3.7,0,0,1,25.161,60.9ZM57.2,83.077a6.161,6.161,0,1,0,6.161,6.161A6.168,6.168,0,0,0,57.2,83.077Zm0,9.858a3.7,3.7,0,1,1,3.7-3.7A3.7,3.7,0,0,1,57.2,92.935ZM25.541,46.962A33.345,33.345,0,0,1,46.962,25.541a1.232,1.232,0,1,1,.758,2.345A30.871,30.871,0,0,0,27.886,47.72a1.232,1.232,0,1,1-2.345-.758ZM65.886,26.334a1.234,1.234,0,0,1,1.553-.794,33.337,33.337,0,0,1,21.42,21.422,1.232,1.232,0,0,1-2.345.758A30.872,30.872,0,0,0,66.677,27.886,1.231,1.231,0,0,1,65.886,26.334ZM48.515,88.066a1.233,1.233,0,0,1-1.553.794,33.34,33.34,0,0,1-21.422-21.42,1.232,1.232,0,1,1,2.345-.758A30.874,30.874,0,0,0,47.72,86.515,1.229,1.229,0,0,1,48.515,88.066ZM88.858,67.439a33.337,33.337,0,0,1-21.423,21.42,1.232,1.232,0,0,1-.758-2.345A30.88,30.88,0,0,0,86.514,66.68a1.232,1.232,0,1,1,2.344.759ZM57.2,46.11a7.37,7.37,0,0,1,5.347,12.467,11.187,11.187,0,0,1,4.573,4.782,1.232,1.232,0,0,1-2.206,1.1,8.657,8.657,0,0,0-5.131-4.4,1.231,1.231,0,0,1-.224-2.255,4.932,4.932,0,1,0-4.713,0,1.231,1.231,0,0,1-.224,2.255,8.68,8.68,0,0,0-5.134,4.4,1.232,1.232,0,0,1-2.206-1.1,11.194,11.194,0,0,1,4.573-4.782A7.368,7.368,0,0,1,57.2,46.11Z" transform="translate(-19 -19)" fill="#6993ff"/>
</svg>
