<svg xmlns="http://www.w3.org/2000/svg" xmlns:xlink="http://www.w3.org/1999/xlink" width="54" height="54" viewBox="0 0 54 54"><defs><style>.a{fill:#fff;stroke:#707070;}.b{clip-path:url(#a);}.c{fill:#6993ff;}</style><clipPath id="a"><circle class="a" cx="27" cy="27" r="27" transform="translate(0 0.127)"/></clipPath></defs><g class="b" transform="translate(0 -0.127)"><g transform="translate(10.548 7.444)"><path class="c" d="M32.266,7.92l-7.74-7.6A1.11,1.11,0,0,0,23.748,0H4.18A4.146,4.146,0,0,0,.038,4.142v29.6A4.146,4.146,0,0,0,4.18,37.887H28.457A4.146,4.146,0,0,0,32.6,33.745V8.712a1.11,1.11,0,0,0-.332-.792ZM24.858,3.756,28.774,7.6H25.211a.353.353,0,0,1-.353-.353Zm3.6,31.911H4.18a1.924,1.924,0,0,1-1.922-1.922V4.141A1.924,1.924,0,0,1,4.18,2.22H22.639V7.249a2.576,2.576,0,0,0,2.573,2.573h5.167V33.745a1.924,1.924,0,0,1-1.922,1.922Zm0,0" transform="translate(-0.038 0)"/><path class="c" d="M24.236,18.129H8.589a1.11,1.11,0,1,0,0,2.22H24.236a1.11,1.11,0,0,0,0-2.22Zm0,0" transform="translate(-0.25 -0.517)"/><path class="c" d="M8.589,24.919H21.348a1.11,1.11,0,1,0,0-2.22H8.589a1.11,1.11,0,1,0,0,2.22Zm0,0" transform="translate(-0.25 -0.648)"/><path class="c" d="M22.887,27.27H8.589a1.11,1.11,0,1,0,0,2.22h14.3a1.11,1.11,0,0,0,0-2.22Zm0,0" transform="translate(-0.25 -0.778)"/></g></g></svg>