<svg xmlns="http://www.w3.org/2000/svg" xmlns:xlink="http://www.w3.org/1999/xlink" width="54" height="53" viewBox="0 0 54 53"><defs><style>.a{fill:#fff;stroke:#707070;}.b{clip-path:url(#a);}.c{fill:#6993ff;}</style><clipPath id="a"><ellipse class="a" cx="27" cy="26.5" rx="27" ry="26.5" transform="translate(0 0.328)"/></clipPath></defs><g class="b" transform="translate(0 -0.328)"><path class="c" d="M.8,33.475a23.913,23.913,0,0,0,12.839,3.7A23.481,23.481,0,0,0,37.463,13.3c1.617-1.384,3.52-4.026,3.52-6.6a1.289,1.289,0,0,0-1.94-1.111,5.326,5.326,0,0,1-4.33.726A9.2,9.2,0,0,0,23.82,4.848a8.848,8.848,0,0,0-4.8,8.293,21.337,21.337,0,0,1-13.84-7.56,1.289,1.289,0,0,0-2.1.172,8.974,8.974,0,0,0-.2,8.863A1.34,1.34,0,0,0,1.751,15.95a9.082,9.082,0,0,0,3.164,6.859,1.286,1.286,0,0,0-.33,1.334,9.244,9.244,0,0,0,5.232,5.6,14.992,14.992,0,0,1-8.166,1.363A1.288,1.288,0,0,0,.8,33.475Zm13.191-3.286a1.289,1.289,0,0,0-.757-2.308,6.716,6.716,0,0,1-5.274-2.744,9.082,9.082,0,0,0,1.758-.282,1.289,1.289,0,0,0-.082-2.505,6.609,6.609,0,0,1-5.008-4.5,8.886,8.886,0,0,0,1.964.261,1.289,1.289,0,0,0,.733-2.363,6.4,6.4,0,0,1-2.74-6.985,23.94,23.94,0,0,0,15.859,7.079,1.285,1.285,0,0,0,1.317-1.574,6.283,6.283,0,0,1,3.279-7.155,6.584,6.584,0,0,1,8.049,1.222c.767.809,3.357.84,4.674.532a8.3,8.3,0,0,1-2.349,2.763,1.288,1.288,0,0,0-.548,1.118A20.937,20.937,0,0,1,29.1,28.135,21.087,21.087,0,0,1,13.644,34.6a21.624,21.624,0,0,1-6.938-1.137,17.388,17.388,0,0,0,7.288-3.272Z" transform="translate(6.234 6.584)"/></g></svg>