<svg xmlns="http://www.w3.org/2000/svg" xmlns:xlink="http://www.w3.org/1999/xlink" width="54" height="54" viewBox="0 0 54 54"><defs><style>.a{fill:#fff;stroke:#707070;}.b{clip-path:url(#a);}.c{fill:#6993ff;}</style><clipPath id="a"><circle class="a" cx="27" cy="27" r="27" transform="translate(0 -0.344)"/></clipPath></defs><g class="b" transform="translate(0 0.344)"><g transform="translate(9.631 6.889)"><g transform="translate(0)"><path class="c" d="M26.325,18.848a10.423,10.423,0,1,0-12.256,0A17.225,17.225,0,0,0,3,34.916a5.739,5.739,0,0,0,5.732,5.732h22.93a5.739,5.739,0,0,0,5.732-5.732A17.225,17.225,0,0,0,26.325,18.848ZM12.9,10.423a7.3,7.3,0,1,1,7.3,7.3A7.3,7.3,0,0,1,12.9,10.423Zm18.761,27.1H8.732a2.609,2.609,0,0,1-2.606-2.606,14.071,14.071,0,0,1,28.141,0A2.609,2.609,0,0,1,31.662,37.521Z" transform="translate(-3)"/></g></g></g></svg>