<svg xmlns="http://www.w3.org/2000/svg" xmlns:xlink="http://www.w3.org/1999/xlink" width="54" height="53" viewBox="0 0 54 53"><defs><style>.a{fill:#fff;stroke:#707070;}.b{clip-path:url(#a);}.c{fill:#6993ff;}</style><clipPath id="a"><ellipse class="a" cx="27" cy="26.5" rx="27" ry="26.5" transform="translate(0 0.455)"/></clipPath></defs><g class="b" transform="translate(0 -0.455)"><g transform="translate(5.044 7.605)"><path class="c" d="M20.276,17.319a7.4,7.4,0,1,0-7.4-7.4A7.411,7.411,0,0,0,20.276,17.319Zm0-12.253a4.85,4.85,0,1,1-4.85,4.85A4.856,4.856,0,0,1,20.276,5.066Z" transform="translate(1.507 -2.514)"/><path class="c" d="M33.4,16.749a4.68,4.68,0,1,0-4.68-4.68A4.685,4.685,0,0,0,33.4,16.749Zm0-6.807a2.127,2.127,0,1,1-2.127,2.127A2.13,2.13,0,0,1,33.4,9.941Z" transform="translate(3.363 -1.943)"/><path class="c" d="M37.789,18.357H35.815a5.786,5.786,0,0,0-5.25,3.349,10.273,10.273,0,0,0-7.592-3.349H20.594A10.273,10.273,0,0,0,13,21.706a5.786,5.786,0,0,0-5.25-3.349H5.778A5.767,5.767,0,0,0,0,24.1v9.293a2.5,2.5,0,0,0,2.5,2.493h7.805a2.984,2.984,0,0,0,2.968,2.723H30.291a2.984,2.984,0,0,0,2.968-2.723h7.716A2.59,2.59,0,0,0,43.567,33.3V24.1A5.767,5.767,0,0,0,37.789,18.357ZM2.553,24.1a3.211,3.211,0,0,1,3.225-3.19H7.752a3.211,3.211,0,0,1,3.225,3.19v.874c-.858,2.235-.681,3.574-.681,8.359H2.553ZM30.718,35.629a.428.428,0,0,1-.427.427H13.276a.428.428,0,0,1-.427-.427V28.655a7.754,7.754,0,0,1,7.745-7.745h2.379a7.754,7.754,0,0,1,7.745,7.745Zm10.3-2.325c0,.044.476.029-7.743.029,0-4.82.176-6.128-.681-8.359V24.1a3.211,3.211,0,0,1,3.225-3.19h1.974a3.211,3.211,0,0,1,3.225,3.19Z" transform="translate(0 -0.658)"/><path class="c" d="M6.584,16.749a4.68,4.68,0,1,0-4.68-4.68A4.685,4.685,0,0,0,6.584,16.749Zm0-6.807a2.127,2.127,0,1,1-2.127,2.127A2.13,2.13,0,0,1,6.584,9.941Z" transform="translate(0.223 -1.943)"/></g></g></svg>