<svg xmlns="http://www.w3.org/2000/svg" width="21.284" height="25" viewBox="0 0 21.284 25"><defs><style>.a{fill:#6993ff;}</style></defs><path class="a" d="M272.429,103.55h2.249a.488.488,0,0,0,.488-.488v-2.253a.488.488,0,0,0-.488-.488h-2.249a.488.488,0,0,0-.488.488v2.253A.488.488,0,0,0,272.429,103.55Zm.488-2.253h1.273v1.277h-1.273Z" transform="translate(-260.52 -95.422)"/><path class="a" d="M181.7,103.55h2.249a.488.488,0,0,0,.488-.488v-2.253a.488.488,0,0,0-.488-.488H181.7a.488.488,0,0,0-.488.488v2.253A.488.488,0,0,0,181.7,103.55Zm.488-2.253h1.273v1.277h-1.273Z" transform="translate(-174.221 -95.422)"/><path class="a" d="M272.429,205.13h2.249a.488.488,0,0,0,.488-.488v-2.253a.488.488,0,0,0-.488-.488h-2.249a.488.488,0,0,0-.488.488v2.253A.488.488,0,0,0,272.429,205.13Zm.488-2.253h1.273v1.277h-1.273Z" transform="translate(-260.52 -192.041)"/><path class="a" d="M181.7,205.13h2.249a.488.488,0,0,0,.488-.488v-2.253a.488.488,0,0,0-.488-.488H181.7a.488.488,0,0,0-.488.488v2.253A.488.488,0,0,0,181.7,205.13Zm.488-2.253h1.273v1.277h-1.273Z" transform="translate(-174.221 -192.041)"/><path class="a" d="M272.429,306.707h2.249a.488.488,0,0,0,.488-.488v-2.253a.488.488,0,0,0-.488-.488h-2.249a.488.488,0,0,0-.488.488v2.253A.488.488,0,0,0,272.429,306.707Zm.488-2.253h1.273v1.277h-1.273Z" transform="translate(-260.52 -288.658)"/><path class="a" d="M183.95,306.707a.488.488,0,0,0,.488-.488v-2.253a.488.488,0,0,0-.488-.488H181.7a.488.488,0,0,0-.488.488v2.253a.488.488,0,0,0,.488.488Zm-1.761-2.253h1.273v1.277h-1.273Z" transform="translate(-174.221 -288.658)"/><path class="a" d="M58.846,24.023h-.454V9.275a.488.488,0,0,0-.488-.488H54.722V2.732a.488.488,0,0,0-.488-.488h-1.04V.488A.488.488,0,0,0,52.705,0H45.031a.488.488,0,0,0-.488.488V2.244H43.5a.488.488,0,0,0-.488.488v9.4H40.335a.488.488,0,0,0-.488.488V24.023H38.538a.488.488,0,0,0,0,.977H58.846a.488.488,0,1,0,0-.977ZM45.52.977h6.7V2.244h-6.7Zm-4.7,12.13h2.191V24.023H40.824Zm3.167-9.886h9.755v20.8H51.315V20.8a.488.488,0,0,0-.488-.488H46.91a.488.488,0,0,0-.488.488v3.222H43.991Zm3.407,20.8V21.29h2.94v2.733Zm7.324,0V9.763h2.693v14.26Z" transform="translate(-38.05)"/></svg>