<svg xmlns="http://www.w3.org/2000/svg" width="19.284" height="22.797" viewBox="0 0 19.284 22.797"><defs><style>.a{fill:#6993ff;}</style></defs><g transform="translate(0)"><path class="a" d="M55.911,2.824a9.642,9.642,0,0,0-16.46,6.818c0,5.21,4.926,9.544,7.573,11.872.368.324.685.6.938.839a1.661,1.661,0,0,0,2.262,0c.253-.236.571-.516.938-.839,2.647-2.328,7.573-6.662,7.573-11.872A9.579,9.579,0,0,0,55.911,2.824ZM50.28,20.511c-.376.331-.7.616-.968.866a.322.322,0,0,1-.438,0c-.268-.25-.592-.536-.968-.866-2.488-2.189-7.12-6.263-7.12-10.869a8.307,8.307,0,0,1,16.613,0C57.4,14.248,52.768,18.323,50.28,20.511Z" transform="translate(-39.451)"/></g><g transform="translate(5.393 5.029)"><g transform="translate(0)"><path class="a" d="M164.819,112.938a4.249,4.249,0,1,0,4.249,4.249A4.254,4.254,0,0,0,164.819,112.938Zm0,7.163a2.914,2.914,0,1,1,2.914-2.914A2.917,2.917,0,0,1,164.819,120.1Z" transform="translate(-160.57 -112.938)"/></g></g></svg>