<svg xmlns="http://www.w3.org/2000/svg" width="21.088" height="18.535" viewBox="0 0 21.088 18.535"><defs><style>.a{fill:#6993ff;}</style></defs><path class="a" d="M20.475,2.471H14.869V1.853A1.856,1.856,0,0,0,13.016,0H8.073A1.856,1.856,0,0,0,6.22,1.853v.618H.618A.619.619,0,0,0,0,3.089V16.681a1.856,1.856,0,0,0,1.853,1.853H19.235a1.856,1.856,0,0,0,1.853-1.853V3.1a.6.6,0,0,0-.614-.628ZM7.455,1.853a.619.619,0,0,1,.618-.618h4.943a.619.619,0,0,1,.618.618v.618H7.455ZM19.614,3.707,17.695,9.463a.617.617,0,0,1-.586.423H13.634V9.267a.618.618,0,0,0-.618-.618H8.073a.618.618,0,0,0-.618.618v.618H3.98a.617.617,0,0,1-.586-.423L1.475,3.707ZM12.4,9.885v1.236H8.691V9.885Zm7.455,6.8a.619.619,0,0,1-.618.618H1.854a.619.619,0,0,1-.618-.618V6.9l.986,2.957A1.851,1.851,0,0,0,3.98,11.121H7.455v.618a.618.618,0,0,0,.618.618h4.943a.618.618,0,0,0,.618-.618v-.618h3.475a1.851,1.851,0,0,0,1.758-1.267L19.853,6.9Zm0,0" transform="translate(0)"/></svg>