<svg xmlns="http://www.w3.org/2000/svg" width="28.922" height="18.546" viewBox="0 0 28.922 18.546"><defs><style>.a{fill:#6993ff;stroke:#6993ff;stroke-width:0.5px;}</style></defs><g transform="translate(0.25 0.25)"><path class="a" d="M24.581,100.191a3.245,3.245,0,1,0-3.723,0,5.622,5.622,0,0,0-1.918,1.125,7.275,7.275,0,0,0-2.632-1.434,4.111,4.111,0,1,0-4.251,0,7.335,7.335,0,0,0-2.6,1.417,5.668,5.668,0,0,0-1.9-1.1,3.245,3.245,0,1,0-3.723,0A5.7,5.7,0,0,0,0,105.578v.371a.024.024,0,0,0,.022.022H6.9a7.564,7.564,0,0,0-.062.95v.382A2.99,2.99,0,0,0,9.83,110.3h8.717a2.99,2.99,0,0,0,2.992-2.992v-.382a7.563,7.563,0,0,0-.062-.95H28.4a.024.024,0,0,0,.022-.022v-.371A5.718,5.718,0,0,0,24.581,100.191Zm-4.206-2.66a2.345,2.345,0,1,1,2.39,2.345h-.09A2.342,2.342,0,0,1,20.374,97.531Zm-9.414-1.17a3.211,3.211,0,1,1,3.4,3.205h-.371A3.216,3.216,0,0,1,10.96,96.361Zm-7.626,1.17a2.345,2.345,0,1,1,2.39,2.345h-.09A2.345,2.345,0,0,1,3.335,97.531Zm3.723,7.536H.911a4.8,4.8,0,0,1,4.735-4.291h.067a4.755,4.755,0,0,1,3.065,1.142A7.384,7.384,0,0,0,7.058,105.066Zm13.57,2.238a2.1,2.1,0,0,1-2.092,2.092H9.819A2.1,2.1,0,0,1,7.727,107.3v-.382a6.46,6.46,0,0,1,6.259-6.45c.062.006.129.006.191.006s.129,0,.191-.006a6.46,6.46,0,0,1,6.259,6.45Zm.669-2.238a7.364,7.364,0,0,0-1.7-3.127,4.778,4.778,0,0,1,3.093-1.164h.067a4.8,4.8,0,0,1,4.735,4.291Z" transform="translate(0 -92.25)"/></g></svg>