<svg id="Layer_1" enable-background="new 0 0 512 512" height="512" viewBox="0 0 512 512" width="512" xmlns="http://www.w3.org/2000/svg"><g><path d="m512 139.81v357.19c0 8.28-6.72 15-15 15h-422.17c-8.28 0-15-6.72-15-15v-482c0-8.28 6.72-15 15-15h295.56c3.94 0 7.72 1.55 10.53 4.32l126.61 124.8c2.86 2.82 4.47 6.67 4.47 10.69z" fill="#f4f1f1"/><path d="m507.53 129.12-126.61-124.8c-2.81-2.77-6.59-4.32-10.53-4.32h-84.475v512h211.085c8.28 0 15-6.72 15-15v-357.19c0-4.02-1.61-7.87-4.47-10.69z" fill="#eceae7"/><path d="m512 139.81v15h-111.62c-24.81 0-44.99-20.19-44.99-45v-109.81h15c3.94 0 7.72 1.55 10.53 4.32l126.61 124.8c2.86 2.82 4.47 6.67 4.47 10.69z" fill="#e7dfdd"/><path d="m315.62 206.68v157.49c0 43.62-35.49 79.11-79.11 79.11h-157.4c-43.62 0-79.11-35.49-79.11-79.11v-157.49c0-43.62 35.49-79.11 79.11-79.11h157.4c43.62 0 79.11 35.49 79.11 79.11z" fill="#57c126"/><path d="m236.51 127.57h-78.7v315.71h78.7c43.62 0 79.11-35.49 79.11-79.11v-157.49c0-43.62-35.49-79.11-79.11-79.11z" fill="#00a763"/><path d="m214.649 248.754-46.233-46.233c-2.812-2.813-6.628-4.393-10.606-4.393s-7.794 1.58-10.606 4.394l-46.232 46.233c-5.858 5.858-5.858 15.355 0 21.213 5.857 5.858 15.355 5.858 21.213 0l20.626-20.626v108.937c0 8.284 6.716 15 15 15s15-6.716 15-15v-108.938l20.627 20.627c2.929 2.929 6.768 4.393 10.606 4.393s7.678-1.465 10.606-4.394c5.858-5.858 5.858-15.355-.001-21.213z" fill="#f4f1f1"/><path d="m214.649 248.754-46.233-46.233c-2.812-2.813-6.628-4.393-10.606-4.393v175.15c8.284 0 15-6.716 15-15v-108.937l20.627 20.627c2.929 2.929 6.768 4.393 10.606 4.393s7.678-1.465 10.606-4.394c5.859-5.858 5.859-15.355 0-21.213z" fill="#e7dfdd"/></g></svg>