<svg xmlns="http://www.w3.org/2000/svg" width="37.663" height="23.229" viewBox="0 0 37.663 23.229"><defs><style>.a{fill:#b5b5b5;}</style></defs><g transform="translate(0 0)"><path class="a" d="M.651,21.09l5.987,5.987a1.427,1.427,0,0,0,2.018,0l5.987-5.987a1.427,1.427,0,0,0,0-2.018L14,18.428a1.427,1.427,0,0,0-2.047.029L9.55,21V10.173H20.7a1.427,1.427,0,0,0,1.009-.418l.951-.951a1.427,1.427,0,0,0-1.009-2.436H7.172A1.427,1.427,0,0,0,5.744,7.794V21l-2.4-2.545a1.427,1.427,0,0,0-2.047-.029l-.644.644a1.427,1.427,0,0,0,0,2.018Zm15.766.918a1.427,1.427,0,0,1,1.009-.418H28.578V10.76l-2.4,2.545a1.427,1.427,0,0,1-2.047.029l-.644-.644a1.427,1.427,0,0,1,0-2.018l5.987-5.987a1.427,1.427,0,0,1,2.018,0l5.987,5.987a1.427,1.427,0,0,1,0,2.018l-.644.644a1.427,1.427,0,0,1-2.047-.029l-2.4-2.545V23.968A1.427,1.427,0,0,1,30.957,25.4H16.475a1.427,1.427,0,0,1-1.009-2.436Z" transform="translate(-0.233 -4.267)"/></g></svg>