<svg id="Capa_1" enable-background="new 0 0 512 512" height="512" viewBox="0 0 512 512" width="512" xmlns="http://www.w3.org/2000/svg"><g><g><path d="m45.611 222.052h-33.622c-4.143 0-7.5-3.357-7.5-7.5s3.357-7.5 7.5-7.5h33.622c4.143 0 7.5 3.357 7.5 7.5s-3.357 7.5-7.5 7.5z" fill="#8ebac5"/></g><g><path d="m500.011 222.052h-34.969c-4.143 0-7.5-3.357-7.5-7.5s3.357-7.5 7.5-7.5h34.969c4.143 0 7.5 3.357 7.5 7.5s-3.358 7.5-7.5 7.5z" fill="#8ebac5"/></g><g><path d="m255.791 78.892c-4.143 0-7.5-3.357-7.5-7.5v-63.892c0-4.143 3.357-7.5 7.5-7.5s7.5 3.357 7.5 7.5v63.892c0 4.142-3.357 7.5-7.5 7.5z" fill="#62dbfb"/></g><path d="m320.086 406.077-63.498 11.427-63.499-11.427v-53.158l62.702-9.55 64.295 9.55z" fill="#8ebac5"/><path d="m193.089 352.919h126.997v53.158h-126.997z" fill="#8ebac5"/><path d="m320.086 406.077-26.757 4v-60.158l26.757 3z" fill="#7ca1b1"/><path d="m475.5 188.47v52.16c0 12.83-10.4 23.23-23.23 23.23h-392.54c-12.83 0-23.23-10.4-23.23-23.23v-52.16c0-12.82 10.4-23.22 23.23-23.22h392.54c12.83 0 23.23 10.4 23.23 23.22z" fill="#8379c1"/><path d="m64.18 165.25h37.9v98.61h-37.9z" fill="#6e61b6"/><path d="m452.27 165.247h-22.76c12.828 0 23.228 10.399 23.228 23.228v52.154c0 12.828-10.399 23.228-23.228 23.228h22.76c12.828 0 23.228-10.399 23.228-23.228v-52.154c0-12.829-10.4-23.228-23.228-23.228z" fill="#6e61b6"/><path d="m428 128.73v192.24c0 17.65-14.3 31.95-31.94 31.95h-280.12c-17.64 0-31.94-14.3-31.94-31.95v-192.24c0-17.65 14.3-31.95 31.94-31.95h65.105l79.235 3.329 70.258-3.329h65.522c17.64 0 31.94 14.3 31.94 31.95z" fill="#e0edf1"/><path d="m396.057 96.782h-23.518c17.643 0 31.946 14.302 31.946 31.946v192.246c0 17.643-14.302 31.946-31.946 31.946h23.518c17.643 0 31.946-14.302 31.946-31.946v-192.246c0-17.644-14.303-31.946-31.946-31.946z" fill="#a8d3d8"/><path d="m297.303 116.428h-83.023v-18.337c0-22.706 18.407-41.112 41.112-41.112h.799c22.706 0 41.112 18.407 41.112 41.112z" fill="#08a9f1"/><path d="m256.191 56.979h-.799c-3.927 0-7.72.562-11.317 1.59 17.2 4.917 29.795 20.743 29.795 39.522v18.337h23.433v-18.337c0-22.706-18.407-41.112-41.112-41.112z" fill="#0290cf"/><g><circle cx="164.154" cy="221.961" fill="#8ebac5" r="45.339"/><path d="m164.154 176.622c-3.24 0-6.398.346-9.446.992 20.505 4.346 35.893 22.546 35.893 44.346s-15.388 40-35.893 44.346c3.047.646 6.206.992 9.446.992 25.04 0 45.339-20.299 45.339-45.339s-20.299-45.337-45.339-45.337z" fill="#7ca1b1"/><circle cx="164.154" cy="221.961" fill="#a2e62e" r="18.891"/></g><g><circle cx="349.797" cy="221.961" fill="#8ebac5" r="45.339"/><path d="m349.797 176.622c-3.368 0-6.646.379-9.805 1.075 20.324 4.483 35.533 22.592 35.533 44.263s-15.209 39.781-35.533 44.263c3.159.697 6.437 1.075 9.805 1.075 25.04 0 45.339-20.299 45.339-45.339s-20.299-45.337-45.339-45.337z" fill="#7ca1b1"/><circle cx="349.797" cy="221.961" fill="#a2e62e" r="18.891"/></g><path d="m355 306.51v.36c0 10.38-8.41 18.78-18.78 18.78h-159.99c-10.38 0-18.78-8.4-18.78-18.78v-.36c0-10.37 8.4-18.78 18.78-18.78h159.99c10.37 0 18.78 8.41 18.78 18.78z" fill="#ffcebf"/><path d="m336.222 287.729h-24.85c10.372 0 18.78 8.408 18.78 18.78v.365c0 10.372-8.408 18.78-18.78 18.78h24.85c10.372 0 18.78-8.408 18.78-18.78v-.365c0-10.372-8.408-18.78-18.78-18.78z" fill="#ffb09e"/><path d="m475.498 504.5h-438.996v-56.502c0-23.153 18.769-41.921 41.921-41.921h355.152c23.153 0 41.921 18.769 41.921 41.921v56.502z" fill="#e0edf1"/><path d="m433.576 406.077h-22.994c23.153 0 41.921 18.769 41.921 41.921v46.679c0 5.425-4.398 9.823-9.823 9.823h32.816v-56.502c.002-23.152-18.767-41.921-41.92-41.921z" fill="#a8d3d8"/><circle cx="126.647" cy="459.905" fill="#62dbfb" r="16.442"/><circle cx="186.218" cy="459.905" fill="#08a9f1" r="16.442"/><path d="m352.982 442.453h89.238v32.885h-89.238z" fill="#8ebac5"/><g><path d="m434.961 475.338h-74.72c-4.009 0-7.259-3.25-7.259-7.259v-18.367c0-4.009 3.25-7.259 7.259-7.259h74.72c4.009 0 7.259 3.25 7.259 7.259v18.367c0 4.009-3.25 7.259-7.259 7.259z" fill="#8ebac5"/><path d="m412.406 442.453c4.273 0 7.738 3.464 7.738 7.738v17.409c0 4.274-3.464 7.738-7.738 7.738h22.555c4.009 0 7.259-3.25 7.259-7.259v-18.367c0-4.009-3.25-7.259-7.259-7.259z" fill="#7ca1b1"/></g><path d="m294.204 133.115h-76.826c-20.066 0-36.333-16.267-36.333-36.333h149.493c0 20.066-16.267 36.333-36.334 36.333z" fill="#62dbfb"/><path d="m306.939 96.782c0 20.066-16.267 36.333-36.333 36.333h23.598c20.066 0 36.333-16.267 36.333-36.333z" fill="#01d0fb"/><g><g><g><path d="m185.22 287.73h15v37.92h-15z" fill="#8379c1"/></g></g></g><g><g><g><path d="m314.63 287.73h15v37.92h-15z" fill="#8379c1"/></g></g></g><g><g><g><path d="m217.78 287.73h15v37.92h-15z" fill="#8379c1"/></g></g></g><g><g><path d="m283.06 287.73h15v37.92h-15z" fill="#8379c1"/></g></g><g><g><path d="m250.42 287.73h15v37.92h-15z" fill="#8379c1"/></g></g><g><path d="m500.011 512h-488.022c-4.143 0-7.5-3.357-7.5-7.5s3.357-7.5 7.5-7.5h488.021c4.143 0 7.5 3.357 7.5 7.5s-3.357 7.5-7.499 7.5z" fill="#678d98"/></g><g><path d="m325.022 467.405h-88.654c-4.143 0-7.5-3.357-7.5-7.5s3.357-7.5 7.5-7.5h88.654c4.143 0 7.5 3.357 7.5 7.5s-3.357 7.5-7.5 7.5z" fill="#62dbfb"/></g></g></svg>