<svg id="Capa_1" enable-background="new 0 0 512 512" height="512" viewBox="0 0 512 512" width="512" xmlns="http://www.w3.org/2000/svg"><path d="m256 255c62.033 0 112.5-50.467 112.5-112.5s-50.467-112.5-112.5-112.5-112.5 50.467-112.5 112.5 50.467 112.5 112.5 112.5zm0-210c53.762 0 97.5 43.738 97.5 97.5s-43.738 97.5-97.5 97.5-97.5-43.738-97.5-97.5 43.738-97.5 97.5-97.5z"/><path d="m192.685 191.313c.251.025.502.038.752.038 1.978 0 3.889-.783 5.303-2.196l103.915-103.916c1.591-1.592 2.384-3.814 2.158-6.055-.225-2.239-1.444-4.26-3.321-5.502-13.516-8.951-29.247-13.682-45.492-13.682-45.49 0-82.5 37.01-82.5 82.5 0 16.245 4.731 31.976 13.683 45.492 1.242 1.877 3.262 3.097 5.502 3.321zm63.315-116.313c10.151 0 20.057 2.258 29.095 6.586l-90.009 90.009c-4.328-9.038-6.586-18.943-6.586-29.095 0-37.22 30.28-67.5 67.5-67.5z"/><path d="m207.187 205.815c.225 2.239 1.444 4.26 3.321 5.502 13.516 8.952 29.247 13.683 45.492 13.683 45.49 0 82.5-37.01 82.5-82.5 0-16.245-4.731-31.976-13.683-45.492-1.242-1.877-3.263-3.097-5.502-3.321-2.233-.221-4.462.567-6.055 2.158l-103.915 103.916c-1.591 1.592-2.384 3.814-2.158 6.054zm109.727-92.41c4.328 9.038 6.586 18.943 6.586 29.095 0 37.22-30.28 67.5-67.5 67.5-10.151 0-20.057-2.258-29.095-6.586z"/><path d="m474.5 122h-23.5v-114.5c0-4.143-3.357-7.5-7.5-7.5h-375c-4.143 0-7.5 3.357-7.5 7.5v114.5h-23.5c-20.678 0-37.5 16.822-37.5 37.5v315c0 20.678 16.822 37.5 37.5 37.5h437c20.678 0 37.5-16.822 37.5-37.5v-315c0-20.678-16.822-37.5-37.5-37.5zm-146.893 195 167.194-167.194c1.408 2.937 2.199 6.225 2.199 9.694v315c0 3.469-.79 6.757-2.199 9.694zm-266.607-180v11.074c0 4.143 3.357 7.5 7.5 7.5s7.5-3.357 7.5-7.5v-133.074h360v133.074c0 4.143 3.357 7.5 7.5 7.5s7.5-3.357 7.5-7.5v-11.074h23.5c3.469 0 6.757.791 9.694 2.199l-191.072 191.072c-9.915 9.916-23.099 15.376-37.122 15.376s-27.207-5.46-37.122-15.377l-191.072-191.071c2.937-1.409 6.225-2.199 9.694-2.199zm-43.801 347.194c-1.409-2.937-2.199-6.225-2.199-9.694v-315c0-3.469.79-6.757 2.199-9.694l167.194 167.194zm20.301 12.806c-3.469 0-6.757-.79-9.694-2.199l167.194-167.194 13.27 13.27c12.749 12.75 29.699 19.771 47.729 19.771s34.98-7.021 47.729-19.77l13.272-13.271 167.194 167.194c-2.937 1.408-6.225 2.199-9.694 2.199z"/></svg>